<svg width="52" height="50" viewBox="0 0 52 50" fill="none" xmlns="http://www.w3.org/2000/svg">
<path d="M46.9206 14.0833L39.7323 42.2708C39.4828 43.2902 38.8875 44.1971 38.0432 44.8439C37.1989 45.4907 36.1553 45.8395 35.0823 45.8333H7.05421C3.83333 45.8333 1.52965 42.75 2.48951 39.7292L11.4696 11.5625C11.7697 10.6073 12.3744 9.77072 13.1955 9.17482C14.0167 8.57893 15.0113 8.2549 16.0343 8.25H42.2706C44.297 8.25 45.9821 9.45833 46.686 11.125C47.0913 12.0208 47.1766 13.0417 46.9206 14.0833Z" stroke="#A1BD11" stroke-width="2" stroke-miterlimit="10"/>
<path d="M34.2718 45.8333H44.4677C47.2193 45.8333 49.3737 43.5625 49.1817 40.875L47.07 12.5M20.791 13.2917L23.0094 4.29167M35.0823 13.3125L37.0874 4.27083M16.5676 25H33.6319M14.4346 33.3333H31.4988" stroke="#A1BD11" stroke-width="2" stroke-miterlimit="10" stroke-linecap="round" stroke-linejoin="round"/>
</svg>
