<svg width="52" height="50" viewBox="0 0 52 50" fill="none" xmlns="http://www.w3.org/2000/svg">
<g opacity="0.5">
<path d="M39.1738 28.2292C38.2779 29.0833 37.766 30.3125 37.894 31.625C38.0859 33.875 40.1976 35.5208 42.5013 35.5208H46.5541V38C46.5541 42.3125 42.9493 45.8333 38.5339 45.8333H16.9689C17.6301 45.2917 18.2061 44.625 18.654 43.875C19.4432 42.625 19.8912 41.1458 19.8912 39.5833C19.891 38.0134 19.4367 36.4755 18.5806 35.1468C17.7245 33.8181 16.5014 32.7527 15.0523 32.0734C13.6033 31.394 11.9872 31.1284 10.3903 31.3071C8.79337 31.4858 7.28064 32.1015 6.02643 33.0833V23.9792C6.02643 19.6667 9.63126 16.1458 14.0466 16.1458H38.5339C42.9493 16.1458 46.5541 19.6667 46.5541 23.9792V26.9792H42.2454C41.0509 26.9792 39.963 27.4375 39.1738 28.2292V28.2292Z" stroke="#E2FF4F" stroke-width="2" stroke-linecap="round" stroke-linejoin="round"/>
<path d="M6.02643 25.8542V16.3333C6.02643 13.8542 7.58354 11.6458 9.95121 10.7708L26.8875 4.52083C27.5012 4.29497 28.1618 4.21793 28.8126 4.29631C29.4635 4.37469 30.0851 4.60615 30.6242 4.97084C31.1633 5.33552 31.6037 5.82252 31.9077 6.39005C32.2117 6.95758 32.3701 7.58867 32.3694 8.22917V16.1458M15.6251 25H30.5563M48.813 29.1042V33.3958C48.813 34.5417 47.8744 35.4792 46.6799 35.5208H42.4992C40.1955 35.5208 38.0838 33.875 37.8918 31.625C37.7639 30.3125 38.2758 29.0833 39.1717 28.2292C39.9609 27.4375 41.0487 26.9792 42.2432 26.9792H46.6799C47.8744 27.0208 48.813 27.9583 48.813 29.1042V29.1042Z" stroke="#D6FF00" stroke-width="2" stroke-linecap="round" stroke-linejoin="round"/>
<path d="M13.6413 41.75L9.11931 37.3542M13.5987 37.4167L9.07665 41.8125M19.8911 39.5833C19.8911 41.1458 19.4432 42.625 18.654 43.875C18.206 44.625 17.6301 45.2917 16.9689 45.8333C15.4758 47.1458 13.5134 47.9167 11.359 47.9167C9.88841 47.9197 8.44237 47.5485 7.16324 46.8399C5.88411 46.1312 4.81599 45.1094 4.06402 43.875C3.25206 42.5842 2.82371 41.0983 2.82686 39.5833C2.82686 36.9583 4.06402 34.6042 6.02641 33.0833C7.28063 32.1015 8.79335 31.4858 10.3903 31.3071C11.9872 31.1284 13.6033 31.394 15.0523 32.0734C16.5014 32.7527 17.7245 33.8181 18.5806 35.1468C19.4367 36.4755 19.891 38.0134 19.8911 39.5833V39.5833Z" stroke="#CAEB1F" stroke-width="2" stroke-miterlimit="10" stroke-linecap="round" stroke-linejoin="round"/>
</g>
</svg>
