<svg width="56" height="54" viewBox="0 0 56 54" fill="none" xmlns="http://www.w3.org/2000/svg">
<path d="M28.1094 40.5V27M28.1094 27V7.6725C28.1093 7.4491 28.1659 7.22916 28.2742 7.0324C28.3825 6.83564 28.5391 6.6682 28.73 6.54511C28.9209 6.42202 29.14 6.34711 29.3678 6.32711C29.5956 6.3071 29.825 6.34263 30.0353 6.4305L49.4875 14.5755C49.7318 14.6778 49.9407 14.8466 50.0892 15.0619C50.2377 15.2771 50.3196 15.5296 50.3249 15.7892C50.3303 16.0487 50.2589 16.3042 50.1194 16.5251C49.9798 16.746 49.7781 16.923 49.5382 17.0347L28.1094 27ZM28.1094 49.5C37.0154 49.5 44.2351 45.9743 44.2351 41.625C44.2351 37.2758 37.0154 33.75 28.1094 33.75C19.2034 33.75 11.9836 37.2758 11.9836 41.625C11.9836 45.9743 19.2034 49.5 28.1094 49.5Z" stroke="#A1BD11" stroke-width="2" stroke-linecap="round" stroke-linejoin="round"/>
</svg>
