<svg width="55" height="50" viewBox="0 0 55 50" fill="none" xmlns="http://www.w3.org/2000/svg">
<path d="M38.7323 30.0833C41.8419 30.5625 45.2693 30.0625 47.6752 28.5833C50.8756 26.625 50.8756 23.4167 47.6752 21.4583C45.2466 19.9792 41.7738 19.4792 38.6642 19.9792M16.1026 30.0833C12.993 30.5625 9.56566 30.0625 7.15969 28.5833C3.9593 26.625 3.9593 23.4167 7.15969 21.4583C9.58835 19.9792 13.0611 19.4792 16.1707 19.9792M41.0702 14.9167C40.9273 14.8958 40.7818 14.8958 40.6389 14.9167C39.1242 14.8664 37.69 14.2775 36.6396 13.2745C35.5892 12.2715 35.0048 10.9329 35.0099 9.54167C35.0099 6.5625 37.6201 4.16667 40.8659 4.16667C42.419 4.16667 43.9085 4.73296 45.0067 5.74097C46.105 6.74898 46.7219 8.11613 46.7219 9.54167C46.7178 10.9339 46.1273 12.2707 45.0739 13.2725C44.0205 14.2743 42.5859 14.8634 41.0702 14.9167V14.9167ZM13.7647 14.9167C13.9009 14.8958 14.0598 14.8958 14.196 14.9167C15.7108 14.8664 17.1449 14.2775 18.1953 13.2745C19.2458 12.2715 19.8302 10.9329 19.8251 9.54167C19.8251 6.5625 17.2148 4.16667 13.969 4.16667C12.4159 4.16667 10.9264 4.73296 9.82819 5.74097C8.72997 6.74898 8.113 8.11613 8.113 9.54167C8.1357 12.4583 10.6325 14.8125 13.7647 14.9167ZM27.4515 30.4792C27.3087 30.4583 27.1631 30.4583 27.0203 30.4792C25.5055 30.4289 24.0713 29.84 23.0209 28.837C21.9705 27.834 21.3861 26.4954 21.3912 25.1042C21.3912 22.125 24.0015 19.7292 27.2472 19.7292C28.8004 19.7292 30.2899 20.2955 31.3881 21.3035C32.4863 22.3115 33.1033 23.6786 33.1033 25.1042C33.0806 28.0208 30.5838 30.3958 27.4515 30.4792ZM20.8465 37.0417C17.6461 39 17.6461 42.2083 20.8465 44.1667C24.4781 46.3958 30.4249 46.3958 34.0566 44.1667C37.257 42.2083 37.257 39 34.0566 37.0417C30.4476 34.8333 24.4781 34.8333 20.8465 37.0417Z" stroke="#A1BD11" stroke-width="2" stroke-linecap="round" stroke-linejoin="round"/>
</svg>
