<svg width="30" height="30" viewBox="0 0 30 30" fill="none" xmlns="http://www.w3.org/2000/svg">
<path d="M11.25 27.5H18.75C25 27.5 27.5 25 27.5 18.75V11.25C27.5 5 25 2.5 18.75 2.5H11.25C5 2.5 2.5 5 2.5 11.25V18.75C2.5 25 5 27.5 11.25 27.5Z" stroke="#36411D" stroke-width="1.5" stroke-linecap="round" stroke-linejoin="round"/>
<path d="M15 19.375C15.5745 19.375 16.1434 19.2618 16.6742 19.042C17.205 18.8221 17.6873 18.4998 18.0936 18.0936C18.4998 17.6873 18.8221 17.205 19.042 16.6742C19.2618 16.1434 19.375 15.5745 19.375 15C19.375 14.4255 19.2618 13.8566 19.042 13.3258C18.8221 12.795 18.4998 12.3127 18.0936 11.9064C17.6873 11.5002 17.205 11.1779 16.6742 10.958C16.1434 10.7382 15.5745 10.625 15 10.625C13.8397 10.625 12.7269 11.0859 11.9064 11.9064C11.0859 12.7269 10.625 13.8397 10.625 15C10.625 16.1603 11.0859 17.2731 11.9064 18.0936C12.7269 18.9141 13.8397 19.375 15 19.375V19.375Z" stroke="#36411D" stroke-width="1.5" stroke-linecap="round" stroke-linejoin="round"/>
<path d="M22.045 8.75H22.06" stroke="#36411D" stroke-width="2" stroke-linecap="round" stroke-linejoin="round"/>
</svg>
