<svg width="30" height="30" viewBox="0 0 30 30" fill="none" xmlns="http://www.w3.org/2000/svg">
<path d="M8.625 25.75C10.5 26.875 12.75 27.5 15 27.5C21.875 27.5 27.5 21.875 27.5 15C27.5 8.125 21.875 2.5 15 2.5C8.125 2.5 2.5 8.125 2.5 15C2.5 17.25 3.125 19.375 4.125 21.25L3.05 25.3825C2.99454 25.5958 2.99648 25.82 3.05562 26.0324C3.11476 26.2447 3.22901 26.4377 3.38677 26.5916C3.54452 26.7456 3.74019 26.8551 3.95391 26.909C4.16764 26.9629 4.39183 26.9594 4.60375 26.8987L8.625 25.75Z" stroke="#36411D" stroke-width="1.5" stroke-miterlimit="10" stroke-linecap="round" stroke-linejoin="round"/>
<path d="M20.625 18.56C20.625 18.7625 20.58 18.9712 20.4837 19.1737C20.3855 19.383 20.2566 19.5764 20.1012 19.7475C19.825 20.0513 19.5212 20.27 19.1762 20.4113C18.8387 20.5525 18.4725 20.625 18.0788 20.625C17.5038 20.625 16.89 20.49 16.2413 20.215C15.5554 19.9177 14.9054 19.5436 14.3037 19.1C13.6494 18.622 13.0318 18.0955 12.4563 17.525C11.8868 16.9526 11.3616 16.338 10.885 15.6862C10.447 15.0898 10.0764 14.4467 9.78 13.7688C9.51 13.125 9.375 12.5125 9.375 11.9288C9.375 11.5463 9.4425 11.1813 9.5775 10.8438C9.7125 10.5 9.9275 10.185 10.2262 9.90375C10.5862 9.54875 10.98 9.375 11.3975 9.375C11.555 9.375 11.7125 9.40875 11.8537 9.47625C12 9.54375 12.1287 9.645 12.2312 9.79125L13.5388 11.6313C13.6388 11.7713 13.7137 11.9012 13.7637 12.025C13.8137 12.1425 13.8425 12.2613 13.8425 12.3675C13.8409 12.5093 13.7998 12.6478 13.7238 12.7675C13.637 12.9138 13.531 13.0479 13.4088 13.1662L12.98 13.6112C12.9502 13.6404 12.9268 13.6755 12.9113 13.7143C12.8958 13.753 12.8885 13.7945 12.89 13.8363C12.89 13.88 12.8963 13.92 12.9075 13.965C12.9238 14.01 12.9413 14.0438 12.9525 14.0775C13.0525 14.2638 13.2275 14.505 13.4763 14.7975C13.73 15.09 14 15.3887 14.2925 15.6862C14.5975 15.985 14.89 16.26 15.1888 16.5138C15.4813 16.76 15.7238 16.9287 15.915 17.03L16.0175 17.0763C16.0624 17.0923 16.1098 17.0999 16.1575 17.0987C16.2006 17.0997 16.2435 17.0916 16.2833 17.075C16.3231 17.0584 16.359 17.0337 16.3888 17.0025L16.8163 16.58C16.9575 16.44 17.0925 16.3338 17.2225 16.265C17.342 16.1888 17.4807 16.1481 17.6225 16.1475C17.7408 16.1492 17.8576 16.1743 17.9663 16.2213C18.09 16.2713 18.22 16.3438 18.36 16.44L20.225 17.7625C20.3601 17.8504 20.4676 17.9748 20.535 18.1212C20.5934 18.2602 20.624 18.4093 20.625 18.56V18.56Z" stroke="#36411D" stroke-width="1.5" stroke-miterlimit="10"/>
</svg>
