<svg width="20" height="20" viewBox="0 0 20 20" fill="none" xmlns="http://www.w3.org/2000/svg">
<g clip-path="url(#clip0_71_152)">
<path d="M7.49996 18.3334H12.5C16.6666 18.3334 18.3333 16.6667 18.3333 12.5V7.50002C18.3333 3.33335 16.6666 1.66669 12.5 1.66669H7.49996C3.33329 1.66669 1.66663 3.33335 1.66663 7.50002V12.5C1.66663 16.6667 3.33329 18.3334 7.49996 18.3334Z" stroke="white" stroke-width="1.5" stroke-linecap="round" stroke-linejoin="round"/>
<path d="M10 12.9166C10.3831 12.9166 10.7623 12.8412 11.1162 12.6946C11.4701 12.5481 11.7916 12.3332 12.0624 12.0624C12.3333 11.7915 12.5481 11.47 12.6947 11.1161C12.8413 10.7623 12.9167 10.383 12.9167 9.99998C12.9167 9.61696 12.8413 9.23769 12.6947 8.88382C12.5481 8.52995 12.3333 8.20842 12.0624 7.93759C11.7916 7.66675 11.4701 7.45191 11.1162 7.30533C10.7623 7.15875 10.3831 7.08331 10 7.08331C9.22649 7.08331 8.48463 7.3906 7.93765 7.93759C7.39066 8.48457 7.08337 9.22643 7.08337 9.99998C7.08337 10.7735 7.39066 11.5154 7.93765 12.0624C8.48463 12.6094 9.22649 12.9166 10 12.9166V12.9166Z" stroke="white" stroke-width="1.5" stroke-linecap="round" stroke-linejoin="round"/>
<path d="M14.6967 5.83331H14.7067" stroke="white" stroke-width="2" stroke-linecap="round" stroke-linejoin="round"/>
</g>
<defs>
<clipPath id="clip0_71_152">
<rect width="20" height="20" fill="white"/>
</clipPath>
</defs>
</svg>
